<svg width="48" height="16" viewBox="0 0 48 16" xmlns="http://www.w3.org/2000/svg">
    <defs/>
    <path id="stroke" fill="none" stroke="#009b00" stroke-opacity="0.7" stroke-width="2.5" d="M 7.25 9 L 7.25 9 L 7.25 7 C 7.25 7 7.25 2.25 12 2.25 L 12 2.25 L 42 2.25 C 42 2.25 46.749996 2.25 46.749996 7 L 46.749996 7 L 46.749996 9 C 46.749996 9 46.749996 13.750001 42 13.750001 L 42 13.750001 L 12 13.750001 C 12 13.750001 7.25 13.750001 7.25 9 Z"/>
    <path id="fill" fill="#ff00ff" fill-opacity="0.8" stroke="none" d="M 8.5 9 L 8.5 9 L 8.5 7 C 8.5 7 8.5 3.5 12 3.5 L 12 3.5 L 42 3.5 C 42 3.5 45.5 3.5 45.5 7 L 45.5 7 L 45.5 9 C 45.5 9 45.5 12.5 42 12.5 L 42 12.5 L 12 12.5 C 12 12.5 8.5 12.5 8.5 9 Z"/>
</svg>
